<svg width="381" height="299" viewBox="0 0 381 299" fill="none" xmlns="http://www.w3.org/2000/svg">
<path d="M1.79083 71.3148C-10.3185 21.9125 43.4565 -17.394 86.8522 9.13976L143.68 43.886C156.656 51.8204 171.925 55.1586 187.029 53.3633L306.649 39.145C326.574 36.7766 338.882 60.2726 325.59 75.3044C315.91 86.2524 319.502 103.435 332.758 109.587L356.656 120.678C398.543 140.117 382.112 203.155 336.065 199.674L274.354 195.009C263.617 194.197 252.888 196.693 243.612 202.161L90.7444 292.267C72.124 303.243 48.3993 299.966 33.451 284.354L27.1612 277.785C3.17575 252.735 18.1288 211.054 52.5683 206.963C91.1207 202.384 103.395 152.462 71.3615 130.527L61.7755 123.964C59.9037 122.682 57.9405 121.539 55.9015 120.545L32.1516 108.961C16.9435 101.543 5.81913 87.7491 1.79083 71.3148Z" fill="#ED0047"/>
</svg>
